<!DOCTYPE svg PUBLIC "-//W3C//DTD SVG 1.1//EN" "http://www.w3.org/Graphics/SVG/1.1/DTD/svg11.dtd">
<!-- Uploaded to: SVG Repo, www.svgrepo.com, Transformed by: SVG Repo Mixer Tools -->
<svg version="1.1" id="Layer_1" xmlns:x="&amp;ns_extend;" xmlns:i="&amp;ns_ai;" xmlns:graph="&amp;ns_graphs;" xmlns="http://www.w3.org/2000/svg" xmlns:xlink="http://www.w3.org/1999/xlink" width="64px" height="64px" viewBox="-1.92 -1.92 27.84 27.84" enable-background="new 0 0 24 24" xml:space="preserve" fill="#ffffff" stroke="#ffffff">
<g id="SVGRepo_bgCarrier" stroke-width="0"/>
<g id="SVGRepo_tracerCarrier" stroke-linecap="round" stroke-linejoin="round" stroke="#000000" stroke-width="2.832"> <metadata> <sfw> <slices> </slices> <slicesourcebounds width="505" height="984" bottomleftorigin="true" x="0" y="-984"> </slicesourcebounds> </sfw> </metadata> <g> <g> <g> <path d="M5,6H1C0.4,6,0,5.6,0,5V1c0-0.6,0.4-1,1-1h4c0.6,0,1,0.4,1,1v4C6,5.6,5.6,6,5,6z M2,4h2V2H2V4z"/> </g> </g> <g> <g> <path d="M23,6h-4c-0.6,0-1-0.4-1-1V1c0-0.6,0.4-1,1-1h4c0.6,0,1,0.4,1,1v4C24,5.6,23.6,6,23,6z M20,4h2V2h-2V4z"/> </g> </g> <g> <g> <path d="M5,24H1c-0.6,0-1-0.4-1-1v-4c0-0.6,0.4-1,1-1h4c0.6,0,1,0.4,1,1v4C6,23.6,5.6,24,5,24z M2,22h2v-2H2V22z"/> </g> </g> <g> <g> <path d="M23,24h-4c-0.6,0-1-0.4-1-1v-4c0-0.6,0.4-1,1-1h4c0.6,0,1,0.4,1,1v4C24,23.6,23.6,24,23,24z M20,22h2v-2h-2V22z"/> </g> </g> <g> <g> <path stroke="#000000" stroke-width="0.00024000000000000003" stroke-linecap="round" stroke-linejoin="round" stroke-miterlimit="10" d="M20,5"/> </g> </g> <g> <g> <path stroke="#000000" stroke-width="0.00024000000000000003" stroke-linecap="round" stroke-linejoin="round" stroke-miterlimit="10" d="M20,19"/> </g> </g> <g> <g> <path stroke="#000000" stroke-width="0.00024000000000000003" stroke-linecap="round" stroke-linejoin="round" stroke-miterlimit="10" d="M2,5"/> </g> </g> <g> <g> <path stroke="#000000" stroke-width="0.00024000000000000003" stroke-linecap="round" stroke-linejoin="round" stroke-miterlimit="10" d="M3,18"/> </g> </g> <g> <g> <path stroke="#000000" stroke-width="0.00024000000000000003" stroke-linecap="round" stroke-linejoin="round" stroke-miterlimit="10" d="M5,4"/> </g> </g> <g> <g> <path stroke="#000000" stroke-width="0.00024000000000000003" stroke-linecap="round" stroke-linejoin="round" stroke-miterlimit="10" d="M19,4"/> </g> </g> <g> <g> <path stroke="#000000" stroke-width="0.00024000000000000003" stroke-linecap="round" stroke-linejoin="round" stroke-miterlimit="10" d="M6,21"/> </g> </g> <g> <g> <path stroke="#000000" stroke-width="0.00024000000000000003" stroke-linecap="round" stroke-linejoin="round" stroke-miterlimit="10" d="M19,20"/> </g> </g> <g> <g> <path d="M3,20c-0.6,0-1-0.4-1-1V5c0-0.6,0.4-1,1-1s1,0.4,1,1v14C4,19.6,3.6,20,3,20z"/> </g> </g> <g> <g> <path d="M19,22H5c-0.6,0-1-0.4-1-1s0.4-1,1-1h14c0.6,0,1,0.4,1,1S19.6,22,19,22z"/> </g> </g> <g> <g> <path d="M21,20c-0.6,0-1-0.4-1-1V5c0-0.6,0.4-1,1-1s1,0.4,1,1v14C22,19.6,21.6,20,21,20z"/> </g> </g> <g> <g> <path d="M19,4H5C4.4,4,4,3.6,4,3s0.4-1,1-1h14c0.6,0,1,0.4,1,1S19.6,4,19,4z"/> </g> </g> </g> </g>
<g id="SVGRepo_iconCarrier"> <metadata> <sfw> <slices> </slices> <slicesourcebounds width="505" height="984" bottomleftorigin="true" x="0" y="-984"> </slicesourcebounds> </sfw> </metadata> <g> <g> <g> <path d="M5,6H1C0.4,6,0,5.6,0,5V1c0-0.6,0.4-1,1-1h4c0.6,0,1,0.4,1,1v4C6,5.6,5.6,6,5,6z M2,4h2V2H2V4z"/> </g> </g> <g> <g> <path d="M23,6h-4c-0.6,0-1-0.4-1-1V1c0-0.6,0.4-1,1-1h4c0.6,0,1,0.4,1,1v4C24,5.6,23.6,6,23,6z M20,4h2V2h-2V4z"/> </g> </g> <g> <g> <path d="M5,24H1c-0.6,0-1-0.4-1-1v-4c0-0.6,0.4-1,1-1h4c0.6,0,1,0.4,1,1v4C6,23.6,5.6,24,5,24z M2,22h2v-2H2V22z"/> </g> </g> <g> <g> <path d="M23,24h-4c-0.6,0-1-0.4-1-1v-4c0-0.6,0.4-1,1-1h4c0.6,0,1,0.4,1,1v4C24,23.6,23.6,24,23,24z M20,22h2v-2h-2V22z"/> </g> </g> <g> <g> <path stroke="#000000" stroke-width="0.00024000000000000003" stroke-linecap="round" stroke-linejoin="round" stroke-miterlimit="10" d="M20,5"/> </g> </g> <g> <g> <path stroke="#000000" stroke-width="0.00024000000000000003" stroke-linecap="round" stroke-linejoin="round" stroke-miterlimit="10" d="M20,19"/> </g> </g> <g> <g> <path stroke="#000000" stroke-width="0.00024000000000000003" stroke-linecap="round" stroke-linejoin="round" stroke-miterlimit="10" d="M2,5"/> </g> </g> <g> <g> <path stroke="#000000" stroke-width="0.00024000000000000003" stroke-linecap="round" stroke-linejoin="round" stroke-miterlimit="10" d="M3,18"/> </g> </g> <g> <g> <path stroke="#000000" stroke-width="0.00024000000000000003" stroke-linecap="round" stroke-linejoin="round" stroke-miterlimit="10" d="M5,4"/> </g> </g> <g> <g> <path stroke="#000000" stroke-width="0.00024000000000000003" stroke-linecap="round" stroke-linejoin="round" stroke-miterlimit="10" d="M19,4"/> </g> </g> <g> <g> <path stroke="#000000" stroke-width="0.00024000000000000003" stroke-linecap="round" stroke-linejoin="round" stroke-miterlimit="10" d="M6,21"/> </g> </g> <g> <g> <path stroke="#000000" stroke-width="0.00024000000000000003" stroke-linecap="round" stroke-linejoin="round" stroke-miterlimit="10" d="M19,20"/> </g> </g> <g> <g> <path d="M3,20c-0.6,0-1-0.4-1-1V5c0-0.6,0.4-1,1-1s1,0.4,1,1v14C4,19.6,3.6,20,3,20z"/> </g> </g> <g> <g> <path d="M19,22H5c-0.6,0-1-0.4-1-1s0.4-1,1-1h14c0.6,0,1,0.4,1,1S19.6,22,19,22z"/> </g> </g> <g> <g> <path d="M21,20c-0.6,0-1-0.4-1-1V5c0-0.6,0.4-1,1-1s1,0.4,1,1v14C22,19.6,21.6,20,21,20z"/> </g> </g> <g> <g> <path d="M19,4H5C4.4,4,4,3.6,4,3s0.4-1,1-1h14c0.6,0,1,0.4,1,1S19.6,4,19,4z"/> </g> </g> </g> </g>
</svg>